<svg width="165" height="100" viewBox="0 0 165 100" fill="none" xmlns="http://www.w3.org/2000/svg">
    <path d="M105.713 49.703L112.067 77.2602C112.424 78.8308 113.78 79.9017 115.422 79.9017H151.404C152.974 79.9017 154.402 78.8308 154.759 77.2602L161.113 49.703H105.713ZM117.707 75.2613C117.564 75.2613 117.493 75.2613 117.35 75.2613C116.422 75.2613 115.636 74.6187 115.494 73.6906L113.138 60.4832C112.923 59.4837 113.637 58.4842 114.637 58.27C115.636 58.0558 116.636 58.7697 116.85 59.7692L119.206 72.9767C119.42 74.0476 118.778 75.0471 117.707 75.2613ZM125.56 75.2613C125.488 75.2613 125.488 75.2613 125.417 75.2613C124.418 75.2613 123.632 74.476 123.561 73.4765L122.633 60.269C122.561 59.1981 123.347 58.3414 124.346 58.27C125.417 58.1986 126.274 58.9839 126.345 59.9834L127.273 73.1909C127.345 74.2618 126.559 75.1899 125.56 75.2613ZM135.341 73.4051C135.341 74.476 134.484 75.2613 133.484 75.2613C132.413 75.2613 131.628 74.4046 131.628 73.4051V60.1976C131.628 59.1267 132.485 58.3414 133.484 58.3414C134.555 58.3414 135.341 59.1981 135.341 60.1976V73.4051ZM143.336 73.5479C143.265 74.5474 142.408 75.3327 141.48 75.3327C141.409 75.3327 141.409 75.3327 141.337 75.3327C140.267 75.2613 139.481 74.3332 139.624 73.3337L140.552 60.1262C140.623 59.0553 141.552 58.3414 142.551 58.4128C143.622 58.4842 144.407 59.4123 144.264 60.4118L143.336 73.5479ZM153.688 60.4832L151.332 73.6906C151.189 74.6187 150.404 75.2613 149.476 75.2613C149.333 75.2613 149.262 75.2613 149.119 75.2613C148.12 75.0471 147.406 74.119 147.62 73.0481L149.976 59.8406C150.19 58.8411 151.118 58.1272 152.189 58.3414C153.188 58.4842 153.831 59.4837 153.688 60.4832Z" fill="#FF2D87"/>
    <path d="M159.828 55.6279H107.569C105.07 55.6279 103 53.5575 103 51.0588C103 48.5601 105.07 46.4897 107.569 46.4897H159.828C162.327 46.4897 164.397 48.5601 164.397 51.0588C164.397 53.5575 162.398 55.6279 159.828 55.6279Z" fill="#FF7CB4"/>
    <path d="M133.413 54.8424C135.503 54.8424 137.197 53.1484 137.197 51.0587C137.197 48.969 135.503 47.2749 133.413 47.2749C131.323 47.2749 129.629 48.969 129.629 51.0587C129.629 53.1484 131.323 54.8424 133.413 54.8424Z" fill="#FF2D87"/>
    <path d="M133.413 51.0585L127.987 26" stroke="#FF7CB4" stroke-width="6.6048" stroke-miterlimit="10" stroke-linecap="round"/>
    <path fill-rule="evenodd" clip-rule="evenodd" d="M17.9698 -5.85458C24.9572 -8.86452 33.1399 -5.7524 36.266 1.25424L36.2689 1.26079L42.7384 16.0483C43.1767 17.0501 42.7199 18.2175 41.7181 18.6558C40.7163 19.0941 39.5488 18.6373 39.1105 17.6355L32.6469 2.86142C30.4145 -2.13315 24.5656 -4.37673 19.5482 -2.2228C14.5551 0.0124092 12.3142 5.86323 14.4723 10.8804C14.473 10.882 14.4737 10.8836 14.4744 10.8852L20.9366 25.6559C21.3749 26.6577 20.9181 27.8251 19.9162 28.2634C18.9144 28.7017 17.747 28.2449 17.3087 27.2431L10.8376 12.4519C7.82762 5.46451 10.9398 -2.71827 17.9464 -5.84432L17.9581 -5.84952L17.9698 -5.85458Z" fill="#FF7CB4"/>
    <path d="M93.2122 83.8179L33.2572 110.146L6.92871 44.4638L62.4495 19.9829L93.2122 83.8179Z" fill="#FF7CB4"/>
    <path d="M54.1351 2.98535L0 26.8196L6.92855 44.4643L62.4493 19.9834L54.1351 2.98535Z" fill="#FF2D87"/>
    <path d="M0 26.8192L18.5685 30.4221L6.92855 44.4639L0 26.8192Z" fill="#FF7CB4"/>
    <path d="M54.1346 2.98535L44.1575 19.0596L62.4488 19.9834L54.1346 2.98535Z" fill="#FF7CB4"/>
    <path d="M18.5687 30.4211L21.8944 37.904L6.92871 44.463L18.5687 30.4211Z" fill="#FF2D87"/>
    <path d="M44.1575 19.0592L47.4832 26.6344L62.4488 19.983L44.1575 19.0592Z" fill="#FF2D87"/>
    <path fill-rule="evenodd" clip-rule="evenodd" d="M25.6373 11.513C32.6247 8.50304 40.8074 11.6152 43.9335 18.6218L43.9364 18.6283L50.4059 33.4158L46.778 35.003L40.3144 20.229C38.082 15.2344 32.2331 12.9908 27.2157 15.1447C22.2226 17.3799 19.9816 23.2308 22.1398 28.2479C22.1405 28.2495 22.1412 28.2512 22.1419 28.2528L28.6041 43.0234L24.9762 44.6106L18.505 29.8194C15.4951 22.8321 18.6072 14.6493 25.6139 11.5232L25.6256 11.518L25.6373 11.513Z" fill="white"/>
    <path d="M54.7817 68.2049L42.1255 73.8401C41.4789 74.1172 40.8322 73.9325 40.3703 73.4706L33.1646 65.5258C32.4256 64.6944 32.7027 63.4935 33.7189 63.0316L52.2874 54.8097C53.2112 54.3478 54.3198 54.9944 54.5045 56.0106L55.7979 66.6344C55.7979 67.2811 55.4284 67.9277 54.7817 68.2049Z" fill="white"/>
    <path d="M57.1834 70.6068L42.8644 76.9811C42.4949 77.1659 41.9406 76.9811 41.7559 76.5192C41.5711 76.1497 41.7559 75.5954 42.2178 75.4106L56.5368 69.0364C57.1834 68.7592 57.6453 68.0202 57.5529 67.2811L55.9825 53.9783C55.7977 52.685 56.5368 51.484 57.7377 50.9298L61.1558 49.4517C61.5253 49.2669 62.0796 49.4517 62.2644 49.9136C62.4491 50.2831 62.2644 50.8374 61.8025 51.0221L58.3844 52.5002C57.8301 52.7774 57.553 53.2393 57.6453 53.8859L59.1234 67.1887C59.3082 68.6668 58.5691 69.9602 57.1834 70.6068Z" fill="white"/>
    <path d="M49.4242 77.351C49.7937 78.1824 49.4242 79.1986 48.5928 79.5681C47.7614 79.9377 46.7452 79.5681 46.3757 78.7367C46.0061 77.9053 46.3757 76.8891 47.2071 76.5196C48.0385 76.1501 49.0547 76.5196 49.4242 77.351Z" fill="white"/>
    <path d="M55.4286 74.7636C55.7981 75.595 55.4286 76.6112 54.5972 76.9807C53.7658 77.3502 52.7496 76.9807 52.3801 76.1493C52.0105 75.3178 52.3801 74.3017 53.2115 73.9321C54.0429 73.4702 55.0591 73.8398 55.4286 74.7636Z" fill="white"/>
    <path d="M115.2 -1.2L97.7 -5L62 30.7L83.2 51.9L118.9 16.2L115.2 -1.2ZM107.5 6.5C105.1 4.1 108.8 0.5 111.2 2.8C113.5 5.2 109.8 8.9 107.5 6.5Z" fill="#F0F4FB"/>
    <path d="M93.0995 26.0086L73.7236 31.7212L74.4872 34.311L93.863 28.5985L93.0995 26.0086Z" fill="#2967FF"/>
    <path d="M80.4 25.6C78.7 23.9 78.8 21 80.7 19.1C82.6 17.2 85.5 17.1 87.2 18.8C88.9 20.5 88.8 23.4 86.9 25.3C85 27.2 82.1 27.3 80.4 25.6ZM85.3 20.7C84.6 20 83.5 20.2 82.7 21C81.9 21.8 81.8 23 82.4 23.6C83.1 24.3 84.2 24.1 85 23.3C85.8 22.6 85.9 21.4 85.3 20.7Z" fill="#2967FF"/>
    <path d="M80.5999 41.4C78.8999 39.7 78.9999 36.8 80.8999 34.9C82.7999 33 85.6999 32.9 87.3999 34.6C89.0999 36.3 88.9999 39.2 87.0999 41.1C85.1999 43 82.2999 43.1 80.5999 41.4ZM85.3999 36.6C84.6999 35.9 83.5999 36.1 82.7999 36.9C81.9999 37.7 81.8999 38.9 82.4999 39.5C83.1999 40.2 84.2999 40 85.0999 39.2C85.9999 38.4 86.0999 37.3 85.3999 36.6Z" fill="#2967FF"/>
</svg>