<svg width="28" height="28" viewBox="0 0 28 28" fill="none" xmlns="http://www.w3.org/2000/svg">
<path fill-rule="evenodd" clip-rule="evenodd" d="M4.94118 0C2.21224 0 0 2.21224 0 4.94118V23.0588C0 25.7878 2.21224 28 4.94118 28H23.0588C25.7878 28 28 25.7878 28 23.0588V4.94118C28 2.21224 25.7878 0 23.0588 0H4.94118ZM23.2908 18.4979C23.312 18.5329 23.3348 18.5766 23.3592 18.6292C23.3836 18.6817 23.4082 18.7746 23.4331 18.9074C23.4573 19.0406 23.4558 19.1597 23.4277 19.2647C23.3995 19.3696 23.3122 19.466 23.1651 19.5535C23.0183 19.6409 22.8114 19.6849 22.5455 19.6849L19.8569 19.7268C19.6886 19.7618 19.4926 19.7443 19.2689 19.6744C19.0448 19.6044 18.8627 19.5273 18.7225 19.4432L18.5125 19.3172C18.3026 19.1699 18.0576 18.9461 17.7774 18.645C17.4973 18.3439 17.2576 18.0728 17.058 17.8311C16.8583 17.5896 16.6449 17.3865 16.4173 17.2219C16.1895 17.0572 15.9917 17.003 15.8237 17.059C15.8027 17.0662 15.7748 17.0781 15.74 17.0958C15.7049 17.1133 15.6451 17.1641 15.5611 17.2481C15.4773 17.3319 15.4021 17.4353 15.3354 17.5578C15.2687 17.6804 15.209 17.8625 15.1566 18.1039C15.1043 18.3455 15.0813 18.6168 15.0885 18.9178C15.0885 19.0226 15.0763 19.1191 15.0517 19.2066C15.0274 19.2939 15.0011 19.3589 14.973 19.4007L14.9312 19.4533C14.8051 19.5863 14.6195 19.6633 14.3746 19.6844H13.1667C12.6696 19.7122 12.1585 19.6546 11.6333 19.511C11.1081 19.3674 10.6478 19.1819 10.2522 18.9545C9.85656 18.7268 9.49601 18.4958 9.17035 18.2611C8.84475 18.0266 8.59799 17.8253 8.42995 17.6572L8.16733 17.4052C8.09733 17.3352 8.00102 17.2304 7.87841 17.0901C7.75595 16.9502 7.50566 16.6315 7.12753 16.1344C6.74941 15.6374 6.37831 15.1087 6.01424 14.5485C5.65024 13.9886 5.22131 13.2498 4.72771 12.3326C4.23412 11.4153 3.77727 10.4631 3.35717 9.47578C3.31512 9.36384 3.29412 9.2693 3.29412 9.19227C3.29412 9.11521 3.30471 9.05922 3.32572 9.02416L3.36776 8.96122C3.47283 8.82816 3.67235 8.76154 3.96642 8.76154L6.84417 8.74065C6.92826 8.75459 7.00868 8.77725 7.08575 8.80885C7.1627 8.84049 7.2188 8.87017 7.25375 8.89813L7.30631 8.92973C7.41833 9.00676 7.50239 9.1187 7.55834 9.26574C7.69831 9.61583 7.85932 9.97825 8.04149 10.3529C8.22354 10.7274 8.36701 11.0128 8.47203 11.2088L8.64004 11.5135C8.8431 11.9336 9.03917 12.2977 9.22814 12.6057C9.41725 12.9137 9.58706 13.1536 9.73763 13.3252C9.88819 13.4967 10.0335 13.6314 10.1734 13.7295C10.3134 13.8276 10.4324 13.8767 10.5305 13.8767C10.6285 13.8767 10.7231 13.8589 10.8141 13.824C10.828 13.8171 10.8456 13.7995 10.8666 13.7715C10.8876 13.7436 10.9296 13.6665 10.9927 13.5405C11.0556 13.4145 11.1029 13.25 11.1345 13.0469C11.1661 12.8439 11.1992 12.5603 11.2342 12.1962C11.2692 11.8321 11.2692 11.3945 11.2342 10.8833C11.2203 10.6034 11.1887 10.3478 11.1398 10.1168C11.0907 9.88577 11.0417 9.72464 10.9927 9.63363L10.9296 9.50749C10.7545 9.26945 10.4571 9.11889 10.0369 9.05594C9.94587 9.04211 9.96346 8.95802 10.0895 8.80392C10.2085 8.67098 10.3415 8.56588 10.4886 8.48896C10.8597 8.3069 11.6965 8.22281 12.9987 8.23679C13.573 8.24385 14.0456 8.28928 14.4167 8.37327C14.5565 8.40836 14.674 8.45559 14.7685 8.51511C14.8629 8.57471 14.9347 8.65865 14.9839 8.76717C15.0327 8.8758 15.0697 8.98785 15.0938 9.10329C15.1183 9.21887 15.1306 9.37812 15.1306 9.58118C15.1306 9.78424 15.1273 9.97685 15.1202 10.1589C15.113 10.3408 15.1044 10.5876 15.0938 10.8992C15.0834 11.2108 15.0782 11.4996 15.0782 11.7657C15.0782 11.8428 15.075 11.9897 15.0677 12.2068C15.0606 12.4239 15.0591 12.5921 15.0624 12.711C15.0659 12.8301 15.0782 12.9717 15.0991 13.1364C15.1201 13.3009 15.1603 13.4375 15.22 13.546C15.2794 13.6545 15.3582 13.7403 15.4562 13.8034C15.5124 13.8173 15.5718 13.8313 15.6349 13.8454C15.6978 13.8595 15.7887 13.821 15.9078 13.7298C16.0271 13.6387 16.1599 13.5181 16.307 13.3675C16.4539 13.2171 16.636 12.9824 16.853 12.6639C17.0703 12.3453 17.3082 11.969 17.5673 11.5349C17.9875 10.8067 18.3619 10.019 18.6912 9.17178C18.7192 9.10178 18.7542 9.04035 18.796 8.988C18.8381 8.93547 18.8766 8.89872 18.9116 8.87782L18.9534 8.84623L19.006 8.81992L19.1426 8.78832C19.2338 8.76728 19.3037 8.76566 19.3527 8.78303L22.3774 8.76213C22.6506 8.72715 22.8746 8.73583 23.0498 8.78832C23.2247 8.84093 23.3332 8.89861 23.3752 8.96166L23.4378 9.06639C23.5989 9.51456 23.0737 10.5437 21.8623 12.1542C21.6944 12.3783 21.4669 12.6757 21.1797 13.0469C20.6337 13.7472 20.3184 14.2055 20.2345 14.4226C20.1156 14.7098 20.1643 14.9933 20.3818 15.2734C20.5006 15.4205 20.7843 15.7077 21.2324 16.1348H21.243L21.2535 16.1453L21.264 16.1556L21.2848 16.1766C22.272 17.0939 22.9409 17.8676 23.2908 18.4979Z" fill="#2967FF"/>
</svg>
